<svg width="40" height="40" viewBox="0 0 40 40" fill="none" xmlns="http://www.w3.org/2000/svg">
<path d="M33.1248 11.875V11.25C33.1231 9.8957 32.7215 8.57205 31.9704 7.44515C31.2192 6.31826 30.152 5.43831 28.9025 4.91574C27.6531 4.39318 26.2772 4.25126 24.9474 4.50782C23.6176 4.76437 22.3932 5.40795 21.4279 6.35781C21.3708 6.41537 21.3256 6.48366 21.2951 6.55875C21.2645 6.63384 21.2491 6.71424 21.2498 6.79531V20.6578C21.2501 20.7705 21.2808 20.881 21.3388 20.9776C21.3967 21.0743 21.4798 21.1534 21.579 21.2068C21.6783 21.2601 21.7901 21.2856 21.9027 21.2805C22.0153 21.2755 22.1244 21.2401 22.2185 21.1781C23.4071 20.416 24.7878 20.0074 26.1998 20C26.5266 19.9939 26.8433 20.1133 27.0848 20.3336C27.3264 20.5539 27.4743 20.8584 27.4982 21.1844C27.5071 21.354 27.4814 21.5236 27.4226 21.6829C27.3637 21.8422 27.2731 21.9879 27.1561 22.111C27.0391 22.2341 26.8983 22.3321 26.7422 22.399C26.5861 22.4659 26.418 22.5002 26.2482 22.5C24.9221 22.5 23.6503 23.0268 22.7127 23.9645C21.775 24.9021 21.2482 26.1739 21.2482 27.5V32.7938C21.2481 32.8872 21.2689 32.9796 21.3092 33.064C21.3495 33.1483 21.4082 33.2226 21.481 33.2812C22.368 34.0153 23.4124 34.535 24.5329 34.7998C25.6534 35.0645 26.8199 35.0674 27.9417 34.808C29.0635 34.5486 30.1103 34.034 31.0009 33.3041C31.8914 32.5743 32.6016 31.649 33.0763 30.6C33.1241 30.4945 33.1416 30.3778 33.127 30.2629C33.1123 30.1481 33.066 30.0395 32.9933 29.9494C32.9205 29.8593 32.8241 29.7912 32.7149 29.7527C32.6057 29.7142 32.4879 29.7067 32.3748 29.7312C31.5957 29.9098 30.799 30 29.9998 30H28.7919C28.4695 30.004 28.1574 29.8859 27.9183 29.6694C27.6792 29.453 27.5309 29.1541 27.5029 28.8328C27.4915 28.6618 27.5155 28.4903 27.5732 28.329C27.6309 28.1676 27.7212 28.0199 27.8384 27.8949C27.9556 27.7699 28.0973 27.6703 28.2546 27.6024C28.4119 27.5345 28.5815 27.4996 28.7529 27.5H30.0029C31.3088 27.502 32.5957 27.1867 33.7529 26.5812C35.1232 25.8676 36.2617 24.7779 37.0347 23.4402C37.8077 22.1024 38.1833 20.5719 38.1174 19.0283C38.0515 17.4846 37.5467 15.9918 36.6625 14.7248C35.7782 13.4578 34.551 12.4692 33.1248 11.875ZM31.2498 17.5H30.6248C29.1329 17.5 27.7022 16.9074 26.6473 15.8525C25.5924 14.7976 24.9998 13.3668 24.9998 11.875V11.25C24.9998 10.9185 25.1315 10.6005 25.3659 10.3661C25.6003 10.1317 25.9182 10 26.2498 10C26.5813 10 26.8992 10.1317 27.1336 10.3661C27.3681 10.6005 27.4998 10.9185 27.4998 11.25V11.875C27.4998 12.2854 27.5806 12.6917 27.7376 13.0709C27.8947 13.45 28.1249 13.7945 28.415 14.0847C29.0011 14.6708 29.796 15 30.6248 15H31.2498C31.5813 15 31.8992 15.1317 32.1336 15.3661C32.3681 15.6005 32.4998 15.9185 32.4998 16.25C32.4998 16.5815 32.3681 16.8995 32.1336 17.1339C31.8992 17.3683 31.5813 17.5 31.2498 17.5ZM13.7498 4.375C11.927 4.37707 10.1795 5.10206 8.89068 6.39093C7.60182 7.67979 6.87683 9.42727 6.87476 11.25V11.875C5.44871 12.4696 4.22175 13.4584 3.33776 14.7256C2.45377 15.9927 1.9494 17.4857 1.88379 19.0293C1.81819 20.5729 2.19408 22.1033 2.96737 23.4409C3.74066 24.7785 4.8793 25.8678 6.24976 26.5812C7.4069 27.1867 8.6938 27.502 9.99976 27.5H11.2076C11.5306 27.4952 11.8434 27.613 12.0832 27.8295C12.3229 28.046 12.4718 28.3453 12.4998 28.6672C12.5111 28.8382 12.4872 29.0097 12.4295 29.171C12.3718 29.3324 12.2815 29.4801 12.1643 29.6051C12.047 29.7301 11.9054 29.8297 11.748 29.8976C11.5907 29.9655 11.4211 30.0004 11.2498 30H9.99976C9.19988 30.0003 8.40257 29.9096 7.6232 29.7297C7.51009 29.705 7.39236 29.7122 7.28312 29.7506C7.17388 29.7889 7.07743 29.8568 7.00452 29.9467C6.93161 30.0366 6.88511 30.145 6.8702 30.2598C6.85529 30.3746 6.87255 30.4913 6.92007 30.5969C7.39465 31.6461 8.10482 32.5718 8.99535 33.3019C9.88589 34.0321 10.9328 34.547 12.0547 34.8067C13.1767 35.0664 14.3433 35.0638 15.4641 34.7993C16.5849 34.5347 17.6296 34.0152 18.5169 33.2812C18.5897 33.2226 18.6485 33.1483 18.6887 33.064C18.729 32.9796 18.7499 32.8872 18.7498 32.7938V27.5C18.7498 26.1739 18.223 24.9021 17.2853 23.9645C16.3476 23.0268 15.0758 22.5 13.7498 22.5C13.5799 22.5002 13.4118 22.4659 13.2557 22.399C13.0996 22.3321 12.9588 22.2341 12.8418 22.111C12.7249 21.9879 12.6342 21.8422 12.5754 21.6829C12.5166 21.5236 12.4908 21.354 12.4998 21.1844C12.5237 20.8581 12.6718 20.5534 12.9137 20.3331C13.1555 20.1127 13.4727 19.9935 13.7998 20C15.2117 20.0074 16.5924 20.416 17.781 21.1781C17.8751 21.2401 17.9842 21.2755 18.0968 21.2805C18.2094 21.2856 18.3212 21.2601 18.4205 21.2068C18.5198 21.1534 18.6028 21.0743 18.6607 20.9776C18.7187 20.881 18.7495 20.7705 18.7498 20.6578V6.79531C18.7503 6.63125 18.6863 6.47355 18.5716 6.35625C17.2882 5.08629 15.5553 4.37428 13.7498 4.375ZM14.9998 11.875C14.9998 13.3668 14.4071 14.7976 13.3522 15.8525C12.2973 16.9074 10.8666 17.5 9.37476 17.5H8.74976C8.41824 17.5 8.10029 17.3683 7.86587 17.1339C7.63145 16.8995 7.49976 16.5815 7.49976 16.25C7.49976 15.9185 7.63145 15.6005 7.86587 15.3661C8.10029 15.1317 8.41824 15 8.74976 15H9.37476C9.78514 15 10.1915 14.9192 10.5706 14.7621C10.9498 14.6051 11.2943 14.3749 11.5845 14.0847C11.8746 13.7945 12.1048 13.45 12.2619 13.0709C12.4189 12.6917 12.4998 12.2854 12.4998 11.875V11.25C12.4998 10.9185 12.6315 10.6005 12.8659 10.3661C13.1003 10.1317 13.4182 10 13.7498 10C14.0813 10 14.3992 10.1317 14.6336 10.3661C14.8681 10.6005 14.9998 10.9185 14.9998 11.25V11.875Z" fill="#7B61FF"/>
</svg>
