<svg width="32" height="32" viewBox="0 0 32 32" fill="none" xmlns="http://www.w3.org/2000/svg">
<path d="M10.5339 21.4663L3.64767 18.9288C3.45779 18.8587 3.29396 18.7321 3.17824 18.566C3.06253 18.4 3.00049 18.2025 3.00049 18C3.00049 17.7976 3.06253 17.6001 3.17824 17.434C3.29396 17.268 3.45779 17.1414 3.64767 17.0713L10.5339 14.5338L13.0714 7.64755C13.1415 7.45767 13.2681 7.29384 13.4342 7.17812C13.6002 7.0624 13.7978 7.00037 14.0002 7.00037C14.2026 7.00037 14.4001 7.0624 14.5662 7.17812C14.7322 7.29384 14.8588 7.45767 14.9289 7.64755L17.4664 14.5338L24.3527 17.0713C24.5426 17.1414 24.7064 17.268 24.8221 17.434C24.9378 17.6001 24.9999 17.7976 24.9999 18C24.9999 18.2025 24.9378 18.4 24.8221 18.566C24.7064 18.7321 24.5426 18.8587 24.3527 18.9288L17.4664 21.4663L14.9289 28.3526C14.8588 28.5424 14.7322 28.7063 14.5662 28.822C14.4001 28.9377 14.2026 28.9997 14.0002 28.9997C13.7978 28.9997 13.6002 28.9377 13.4342 28.822C13.2681 28.7063 13.1415 28.5424 13.0714 28.3526L10.5339 21.4663Z" stroke="#CACAFB" stroke-width="2" stroke-linecap="round" stroke-linejoin="round"/>
<path d="M22 2V8" stroke="#CACAFB" stroke-width="2" stroke-linecap="round" stroke-linejoin="round"/>
<path d="M28 9V13" stroke="#343330" stroke-width="2" stroke-linecap="round" stroke-linejoin="round"/>
<path d="M19 5H25" stroke="#343330" stroke-width="2" stroke-linecap="round" stroke-linejoin="round"/>
<path d="M26 11H30" stroke="#343330" stroke-width="2" stroke-linecap="round" stroke-linejoin="round"/>
</svg>
