<svg width="32" height="32" viewBox="0 0 32 32" fill="none" xmlns="http://www.w3.org/2000/svg">
<path d="M32.0004 17C32.0004 17.2652 31.895 17.5196 31.7075 17.7071C31.5199 17.8946 31.2656 18 31.0004 18H29.0004V20C29.0004 20.2652 28.895 20.5196 28.7075 20.7071C28.5199 20.8946 28.2656 21 28.0004 21C27.7352 21 27.4808 20.8946 27.2933 20.7071C27.1057 20.5196 27.0004 20.2652 27.0004 20V18H25.0004C24.7352 18 24.4808 17.8946 24.2933 17.7071C24.1057 17.5196 24.0004 17.2652 24.0004 17C24.0004 16.7348 24.1057 16.4804 24.2933 16.2929C24.4808 16.1054 24.7352 16 25.0004 16H27.0004V14C27.0004 13.7348 27.1057 13.4804 27.2933 13.2929C27.4808 13.1054 27.7352 13 28.0004 13C28.2656 13 28.5199 13.1054 28.7075 13.2929C28.895 13.4804 29.0004 13.7348 29.0004 14V16H31.0004C31.2656 16 31.5199 16.1054 31.7075 16.2929C31.895 16.4804 32.0004 16.7348 32.0004 17ZM18.0004 19.71C19.568 18.7336 20.775 17.2733 21.4387 15.5498C22.1024 13.8264 22.1868 11.9337 21.6791 10.1581C21.1713 8.38242 20.0991 6.82045 18.6245 5.70847C17.15 4.59649 15.3534 3.995 13.5066 3.995C11.6598 3.995 9.86323 4.59649 8.38871 5.70847C6.91418 6.82045 5.84193 8.38242 5.33418 10.1581C4.82643 11.9337 4.9108 13.8264 5.57454 15.5498C6.23827 17.2733 7.44525 18.7336 9.01287 19.71C6.43162 20.555 4.10912 22.1338 2.24162 24.3563C2.11936 24.5016 2.04101 24.6787 2.01573 24.8669C1.99046 25.0552 2.0193 25.2467 2.0989 25.4191C2.17849 25.5916 2.30554 25.7378 2.46518 25.8406C2.62482 25.9435 2.81046 25.9988 3.00037 26H24.0004C24.1909 26.0002 24.3776 25.9459 24.5383 25.8436C24.6991 25.7413 24.8272 25.5952 24.9077 25.4225C24.9882 25.2498 25.0177 25.0577 24.9927 24.8688C24.9677 24.6799 24.8893 24.5021 24.7666 24.3563C22.8979 22.1338 20.5754 20.555 18.0004 19.71Z" fill="#7B61FF"/>
</svg>
